# xmcd CD database file
#
# Track frame offsets:
#	182
#	15175
#	25990
#	35955
#	49872
#	65127
#	78240
#	90742
#	102847
#	118115
#	130117
#	141145
#	151697
#	165927
#	178915
#
# Disc length: 2592 seconds
#
# Revision: 2
# Processed by: cddbd v1.5.2PL0 Copyright (c) Steve Scherf et al.
# Submitted via: CDex 1.70beta2
#
DISCID=be0a1e0f
DTITLE=Vários - Hollywood - The Greatest Hits vol. 2
DYEAR=1900
DGENRE=Trilha Sonora
TTITLE0=Percy Faith-The Apartment
TTITLE1=Les Elgart-The Man With Golden Arm
TTITLE2=Doris Day-Pillow Talk
TTITLE3=Johnny Mathis-It's Not For Me To Say
TTITLE4=Harry James-Pic Nic
TTITLE5=The Brothers Four-The Green Leaves Of Summer
TTITLE6=And Williams-Moon River
TTITLE7=Ray Conniff-Around The World
TTITLE8=Tonny Bennett-Alfie
TTITLE9=Harry Connick, Jr-It Had To Be You
TTITLE10=Percy Faith-Summer Place ´76
TTITLE11=Frankie Laine-Gunfight At The O.k.corral
TTITLE12=Andy Williams-Sunshine On My Shoulders
TTITLE13=Tony Bennett-The Look Of Love
TTITLE14=Peter Nero-Jesus Christ, Superstar
EXTD=
EXTT0=
EXTT1=
EXTT2=
EXTT3=
EXTT4=
EXTT5=
EXTT6=
EXTT7=
EXTT8=
EXTT9=
EXTT10=
EXTT11=
EXTT12=
EXTT13=
EXTT14=
PLAYORDER=
